REM DIRINDEX 1\8,1\2\11,1\3\12,1\3\14,1\5\15,1\5\16,1\6\17,1\6\18,1\4\19,1\4\20,1\4\21,1\4\22,1\7\23,1\7\24,1\7\25,1\2\9\26,1\2\9\27,1\2\10\28,1\2\10\29,1\2\10\30,1\2\10\31,1\2\10\32,1\3\13\33,1\3\13\34,1\3\13\35
REM DIRNAME folder01,folder02,folder03,folder04,folder05,folder06,folder07,folder08,folder09,folder10,folder11,folder12,folder13,folder14,folder15,folder16,folder17,folder18,folder19,folder20,folder21,folder22,folder23,folder24,folder25,folder26,folder27,folder28,folder29,folder30,folder31,folder32,folder33,folder34,folder35
TITLE ""
FILE "87 087_UNIT2_SET6.mp3" MP3
  TRACK 01 AUDIO
    TITLE "14:cjc123_7733"
    INDEX 01 00:00:00
  TRACK 02 AUDIO
    TITLE "0:"
    INDEX 01 00:02:67
  TRACK 03 AUDIO
    TITLE "33:cjc123_7734"
    INDEX 01 00:03:43
  TRACK 04 AUDIO
    TITLE "0:"
    INDEX 01 00:04:33
  TRACK 05 AUDIO
    TITLE "34:cjc123_7735"
    INDEX 01 00:04:58
  TRACK 06 AUDIO
    TITLE "0:"
    INDEX 01 00:05:40
  TRACK 07 AUDIO
    TITLE "35:cjc123_7736"
    INDEX 01 00:06:14
  TRACK 08 AUDIO
    TITLE "0:"
    INDEX 01 00:09:67
  TRACK 09 AUDIO
    TITLE "33:cjc123_7737"
    INDEX 01 00:10:47
  TRACK 10 AUDIO
    TITLE "0:"
    INDEX 01 00:11:40
  TRACK 11 AUDIO
    TITLE "34:cjc123_7738"
    INDEX 01 00:11:60
  TRACK 12 AUDIO
    TITLE "0:"
    INDEX 01 00:12:54
  TRACK 13 AUDIO
    TITLE "35:cjc123_7739"
    INDEX 01 00:13:32
  TRACK 14 AUDIO
    TITLE "0:"
    INDEX 01 00:16:73
  TRACK 15 AUDIO
    TITLE "33:cjc123_7740"
    INDEX 01 00:17:53
  TRACK 16 AUDIO
    TITLE "0:"
    INDEX 01 00:18:48
  TRACK 17 AUDIO
    TITLE "34:cjc123_7741"
    INDEX 01 00:18:66
  TRACK 18 AUDIO
    TITLE "0:"
    INDEX 01 00:20:00
  TRACK 19 AUDIO
    TITLE "35:cjc123_7742"
    INDEX 01 00:20:49
  TRACK 20 AUDIO
    TITLE "0:"
    INDEX 01 00:24:10
  TRACK 21 AUDIO
    TITLE "33:cjc123_7743"
    INDEX 01 00:24:65
  TRACK 22 AUDIO
    TITLE "0:"
    INDEX 01 00:25:60
  TRACK 23 AUDIO
    TITLE "34:cjc123_7744"
    INDEX 01 00:26:26
  TRACK 24 AUDIO
    TITLE "0:"
    INDEX 01 00:27:34
  TRACK 25 AUDIO
    TITLE "35:cjc123_7745"
    INDEX 01 00:28:10
  TRACK 26 AUDIO
    TITLE "0:"
    INDEX 01 00:31:27
  TRACK 27 AUDIO
    TITLE "33:cjc123_7746"
    INDEX 01 00:32:01
  TRACK 28 AUDIO
    TITLE "0:"
    INDEX 01 00:33:01
  TRACK 29 AUDIO
    TITLE "34:cjc123_7747"
    INDEX 01 00:33:26
  TRACK 30 AUDIO
    TITLE "0:"
    INDEX 01 00:34:22
  TRACK 31 AUDIO
    TITLE "35:cjc123_7748"
    INDEX 01 00:34:69
  TRACK 32 AUDIO
    TITLE "0:"
    INDEX 01 00:38:61
  TRACK 33 AUDIO
    TITLE "33:cjc123_7749"
    INDEX 01 00:39:35
  TRACK 34 AUDIO
    TITLE "0:"
    INDEX 01 00:40:38
  TRACK 35 AUDIO
    TITLE "34:cjc123_7750"
    INDEX 01 00:40:50
  TRACK 36 AUDIO
    TITLE "0:"
    INDEX 01 00:41:45
  TRACK 37 AUDIO
    TITLE "35:cjc123_7751"
    INDEX 01 00:42:19
  TRACK 38 AUDIO
    TITLE "0:"
    INDEX 01 00:45:55
  TRACK 39 AUDIO
    TITLE "33:cjc123_7752"
    INDEX 01 00:46:43
  TRACK 40 AUDIO
    TITLE "0:"
    INDEX 01 00:47:52
  TRACK 41 AUDIO
    TITLE "34:cjc123_7753"
    INDEX 01 00:48:10
  TRACK 42 AUDIO
    TITLE "0:"
    INDEX 01 00:49:16
  TRACK 43 AUDIO
    TITLE "35:cjc123_7754"
    INDEX 01 00:49:72
  TRACK 44 AUDIO
    TITLE "0:"
    INDEX 01 00:52:55
  TRACK 45 AUDIO
    TITLE "33:cjc123_7755"
    INDEX 01 00:53:41
  TRACK 46 AUDIO
    TITLE "0:"
    INDEX 01 00:54:32
  TRACK 47 AUDIO
    TITLE "34:cjc123_7756"
    INDEX 01 00:54:52
  TRACK 48 AUDIO
    TITLE "0:"
    INDEX 01 00:55:34
  TRACK 49 AUDIO
    TITLE "35:cjc123_7757"
    INDEX 01 00:56:18
  TRACK 50 AUDIO
    TITLE "0:"
    INDEX 01 00:59:47
  TRACK 51 AUDIO
    TITLE "33:cjc123_7758"
    INDEX 01 01:00:21
  TRACK 52 AUDIO
    TITLE "0:"
    INDEX 01 01:01:25
  TRACK 53 AUDIO
    TITLE "34:cjc123_7759"
    INDEX 01 01:01:50
  TRACK 54 AUDIO
    TITLE "0:"
    INDEX 01 01:02:55
  TRACK 55 AUDIO
    TITLE "35:cjc123_7760"
    INDEX 01 01:03:27
  TRACK 56 AUDIO
    TITLE "0:"
    INDEX 01 01:06:51
  TRACK 57 AUDIO
    TITLE "33:cjc123_7761"
    INDEX 01 01:07:27
  TRACK 58 AUDIO
    TITLE "0:"
    INDEX 01 01:08:40
  TRACK 59 AUDIO
    TITLE "34:cjc123_7762"
    INDEX 01 01:08:66
  TRACK 60 AUDIO
    TITLE "0:"
    INDEX 01 01:09:73
  TRACK 61 AUDIO
    TITLE "35:cjc123_7763"
    INDEX 01 01:10:51
  TRACK 62 AUDIO
    TITLE "0:"
    INDEX 01 01:13:40
  TRACK 63 AUDIO
    TITLE "33:cjc123_7764"
    INDEX 01 01:14:27
  TRACK 64 AUDIO
    TITLE "0:"
    INDEX 01 01:15:21
  TRACK 65 AUDIO
    TITLE "34:cjc123_7765"
    INDEX 01 01:15:58
  TRACK 66 AUDIO
    TITLE "0:"
    INDEX 01 01:16:52
  TRACK 67 AUDIO
    TITLE "35:cjc123_7766"
    INDEX 01 01:17:26
  TRACK 68 AUDIO
    TITLE "0:"
    INDEX 01 01:20:46
  TRACK 69 AUDIO
    TITLE "33:cjc123_7767"
    INDEX 01 01:21:23
  TRACK 70 AUDIO
    TITLE "0:"
    INDEX 01 01:22:25
  TRACK 71 AUDIO
    TITLE "34:cjc123_7768"
    INDEX 01 01:22:66
  TRACK 72 AUDIO
    TITLE "0:"
    INDEX 01 01:24:04
  TRACK 73 AUDIO
    TITLE "35:cjc123_7769"
    INDEX 01 01:24:57
  TRACK 74 AUDIO
    TITLE "0:"
    INDEX 01 01:29:64
  TRACK 75 AUDIO
    TITLE "33:cjc123_7770"
    INDEX 01 01:30:50
  TRACK 76 AUDIO
    TITLE "0:"
    INDEX 01 01:32:06
  TRACK 77 AUDIO
    TITLE "34:cjc123_7771"
    INDEX 01 01:32:31
  TRACK 78 AUDIO
    TITLE "0:"
    INDEX 01 01:33:50
  TRACK 79 AUDIO
    TITLE "35:cjc123_7772"
    INDEX 01 01:34:20
  TRACK 80 AUDIO
    TITLE "0:"
    INDEX 01 01:38:02
  TRACK 81 AUDIO
    TITLE "33:cjc123_7773"
    INDEX 01 01:38:49
  TRACK 82 AUDIO
    TITLE "0:"
    INDEX 01 01:39:64
  TRACK 83 AUDIO
    TITLE "34:cjc123_7774"
    INDEX 01 01:40:27
  TRACK 84 AUDIO
    TITLE "0:"
    INDEX 01 01:41:30
  TRACK 85 AUDIO
    TITLE "35:cjc123_7775"
    INDEX 01 01:42:12
  TRACK 86 AUDIO
    TITLE "0:"
    INDEX 01 01:45:57
  TRACK 87 AUDIO
    TITLE "33:cjc123_7776"
    INDEX 01 01:46:33
  TRACK 88 AUDIO
    TITLE "0:"
    INDEX 01 01:47:48
  TRACK 89 AUDIO
    TITLE "34:cjc123_7777"
    INDEX 01 01:47:66
  TRACK 90 AUDIO
    TITLE "0:"
    INDEX 01 01:49:00
  TRACK 91 AUDIO
    TITLE "35:cjc123_7778"
    INDEX 01 01:49:51
  TRACK 92 AUDIO
    TITLE "0:"
    INDEX 01 01:52:30
